<mxfile host="app.diagrams.net" agent="Mozilla/5.0 (Windows NT 10.0; Win64; x64) AppleWebKit/537.36 (KHTML, like Gecko) Chrome/131.0.0.0 Safari/537.36" version="25.0.3">
  <diagram name="Page-1" id="6GyipOatxIIVSVKHxFAy">
    <mxGraphModel dx="1562" dy="845" grid="1" gridSize="10" guides="1" tooltips="1" connect="1" arrows="1" fold="1" page="1" pageScale="1" pageWidth="850" pageHeight="1100" math="0" shadow="0">
      <root>
        <mxCell id="0" />
        <mxCell id="1" parent="0" />
        <mxCell id="hvzIIKVZ51MqT405g5E5-15" value="" style="rounded=0;whiteSpace=wrap;html=1;strokeColor=none;" vertex="1" parent="1">
          <mxGeometry x="150" y="120" width="430" height="250" as="geometry" />
        </mxCell>
        <mxCell id="hvzIIKVZ51MqT405g5E5-5" value="" style="group" vertex="1" connectable="0" parent="1">
          <mxGeometry x="440" y="140" width="100" height="100" as="geometry" />
        </mxCell>
        <mxCell id="hvzIIKVZ51MqT405g5E5-3" value="" style="shape=cylinder3;whiteSpace=wrap;html=1;boundedLbl=1;backgroundOutline=1;size=15;fillColor=none;strokeColor=#D62125;strokeWidth=3;align=center;verticalAlign=middle;fontFamily=Helvetica;fontSize=12;fontColor=default;" vertex="1" parent="hvzIIKVZ51MqT405g5E5-5">
          <mxGeometry x="20" y="20" width="60" height="80" as="geometry" />
        </mxCell>
        <mxCell id="hvzIIKVZ51MqT405g5E5-4" value="&lt;span style=&quot;font-weight: 400; text-wrap-mode: wrap;&quot;&gt;ArticleRepository&lt;/span&gt;" style="text;strokeColor=none;fillColor=none;html=1;fontSize=15;fontStyle=1;verticalAlign=middle;align=center;" vertex="1" parent="hvzIIKVZ51MqT405g5E5-5">
          <mxGeometry y="-10" width="100" height="20" as="geometry" />
        </mxCell>
        <mxCell id="hvzIIKVZ51MqT405g5E5-6" value="" style="group" vertex="1" connectable="0" parent="1">
          <mxGeometry x="190" y="140" width="100" height="100" as="geometry" />
        </mxCell>
        <mxCell id="hvzIIKVZ51MqT405g5E5-1" value="" style="shape=cylinder3;whiteSpace=wrap;html=1;boundedLbl=1;backgroundOutline=1;size=15;fillColor=none;strokeColor=#D62125;strokeWidth=3;" vertex="1" parent="hvzIIKVZ51MqT405g5E5-6">
          <mxGeometry x="20" y="20" width="60" height="80" as="geometry" />
        </mxCell>
        <mxCell id="hvzIIKVZ51MqT405g5E5-2" value="&lt;span style=&quot;font-weight: 400; text-wrap-mode: wrap;&quot;&gt;OrderRepository&lt;/span&gt;" style="text;strokeColor=none;fillColor=none;html=1;fontSize=15;fontStyle=1;verticalAlign=middle;align=center;" vertex="1" parent="hvzIIKVZ51MqT405g5E5-6">
          <mxGeometry y="-10" width="100" height="20" as="geometry" />
        </mxCell>
        <mxCell id="hvzIIKVZ51MqT405g5E5-7" value="&lt;font&gt;Order&lt;/font&gt;" style="rounded=0;whiteSpace=wrap;html=1;fontSize=15;fillColor=none;strokeColor=#D62125;strokeWidth=3;align=center;verticalAlign=middle;fontFamily=Helvetica;fontColor=default;" vertex="1" parent="1">
          <mxGeometry x="180" y="290" width="120" height="60" as="geometry" />
        </mxCell>
        <mxCell id="hvzIIKVZ51MqT405g5E5-8" value="&lt;font&gt;Article&lt;/font&gt;" style="rounded=0;whiteSpace=wrap;html=1;fontSize=15;fillColor=none;strokeColor=#D62125;strokeWidth=3;align=center;verticalAlign=middle;fontFamily=Helvetica;fontColor=default;" vertex="1" parent="1">
          <mxGeometry x="430" y="290" width="120" height="60" as="geometry" />
        </mxCell>
        <mxCell id="hvzIIKVZ51MqT405g5E5-16" value="" style="shape=flexArrow;endArrow=classic;startArrow=none;html=1;rounded=0;strokeColor=#C91F24;strokeWidth=2;fillColor=default;startFill=0;entryX=0;entryY=0.5;entryDx=0;entryDy=0;exitX=1;exitY=0.5;exitDx=0;exitDy=0;" edge="1" parent="1" source="hvzIIKVZ51MqT405g5E5-7" target="hvzIIKVZ51MqT405g5E5-8">
          <mxGeometry width="100" height="100" relative="1" as="geometry">
            <mxPoint x="320" y="470" as="sourcePoint" />
            <mxPoint x="480" y="470" as="targetPoint" />
          </mxGeometry>
        </mxCell>
        <mxCell id="hvzIIKVZ51MqT405g5E5-20" value="&lt;span style=&quot;font-family: &amp;quot;Courier New&amp;quot;; font-size: 15px; font-weight: 700;&quot;&gt;@OneToMany&lt;/span&gt;" style="edgeLabel;html=1;align=center;verticalAlign=middle;resizable=0;points=[];" vertex="1" connectable="0" parent="hvzIIKVZ51MqT405g5E5-16">
          <mxGeometry x="0.21" relative="1" as="geometry">
            <mxPoint x="-17" y="-30" as="offset" />
          </mxGeometry>
        </mxCell>
      </root>
    </mxGraphModel>
  </diagram>
</mxfile>
